<?xml version="1.0" standalone="no"?>
<!DOCTYPE svg PUBLIC "-//W3C//DTD SVG 20010904//EN"
 "http://www.w3.org/TR/2001/REC-SVG-20010904/DTD/svg10.dtd">
<svg version="1.0" xmlns="http://www.w3.org/2000/svg"
 width="2048.000000pt" height="2048.000000pt" viewBox="0 0 2048.000000 2048.000000"
 preserveAspectRatio="xMidYMid meet">

<g transform="translate(0.000000,2048.000000) scale(0.100000,-0.100000)"
fill="#000000" stroke="none">
<path d="M0 10240 l0 -10240 10240 0 10240 0 0 10240 0 10240 -10240 0 -10240
0 0 -10240z m14016 1440 c12 0 14 -68 14 -445 l0 -445 -146 0 c-141 0 -147 1
-176 25 -36 30 -61 32 -88 5 -28 -28 -25 -40 10 -40 32 0 42 -23 15 -34 -8 -3
-15 -13 -15 -21 0 -12 -6 -15 -22 -11 -15 4 -12 1 7 -9 44 -21 63 -18 97 15
l30 30 144 0 144 0 0 -80 0 -80 -230 0 -229 0 -1 545 0 545 202 2 c112 2 209
2 216 1 8 -2 20 -3 28 -3z m2012 -1517 l2 -1523 -235 0 -235 0 0 650 0 650
-104 0 -104 0 5 44 c5 38 2 48 -20 70 -29 29 -64 33 -93 11 -10 -8 -37 -15
-59 -15 -40 0 -46 5 -205 168 l-165 167 370 5 370 5 3 642 2 642 128 4 c70 1
174 3 232 2 l105 0 3 -1522z m-10108 1506 c0 -14 348 -823 479 -1112 17 -38
31 -73 31 -78 0 -5 -12 -9 -28 -9 -22 0 -43 18 -110 96 -74 85 -83 98 -77 124
5 23 1 35 -19 55 -14 14 -34 25 -44 25 -32 0 -72 -38 -72 -69 0 -41 21 -61 72
-69 42 -7 51 -13 122 -99 l77 -92 51 -3 51 -3 38 -85 c21 -47 38 -88 38 -92 1
-5 -72 -8 -161 -8 l-163 1 -100 111 c-235 262 -230 253 -360 555 -43 101 -80
182 -81 180 -1 -1 -32 -69 -68 -152 l-65 -150 -116 -3 c-114 -3 -118 -2 -141
23 -29 32 -58 32 -89 0 -31 -30 -32 -62 -3 -92 28 -30 63 -29 92 2 22 24 29
25 131 25 89 0 106 -2 102 -14 -3 -8 -20 -49 -38 -92 l-32 -77 -156 6 c-86 4
-193 7 -238 7 l-83 0 15 33 c8 17 112 261 230 541 119 280 218 513 221 517 8
14 494 11 494 -2z m2136 -56 c121 -171 621 -851 646 -878 l27 -30 1 40 c4 259
-2 511 -13 514 -6 2 -24 17 -39 32 -61 61 -16 159 72 159 104 0 136 -125 45
-179 l-32 -19 -7 -233 c-4 -129 -9 -256 -12 -284 l-6 -50 199 -266 c259 -349
640 -869 678 -927 l30 -46 3 237 2 237 24 0 c18 0 47 -27 117 -109 l94 -110
113 0 112 -1 0 -530 0 -530 -220 0 c-209 0 -220 1 -230 20 -6 11 -65 95 -132
187 -67 93 -151 209 -187 258 -36 50 -113 155 -171 235 -58 80 -153 210 -210
290 -57 80 -187 255 -289 390 -102 135 -288 382 -413 549 l-228 304 0 -131 0
-132 -138 0 c-126 0 -138 2 -150 20 -19 31 -75 27 -101 -6 -27 -35 -26 -59 4
-89 32 -33 58 -31 97 5 l31 30 123 0 124 0 0 -80 0 -80 -223 0 -224 0 -6 302
c-4 166 -7 451 -7 635 l0 333 224 0 224 0 48 -67z m2054 -567 l0 -634 -82 -4
-83 -4 -53 51 c-51 49 -52 52 -41 83 9 26 8 37 -5 57 -33 51 -126 21 -126 -40
0 -34 45 -79 71 -72 14 4 33 -10 71 -54 l52 -59 97 0 98 0 3 -87 c2 -49 2 -91
0 -95 -2 -5 -66 -8 -142 -8 l-140 0 -42 47 c-24 26 -64 67 -90 92 l-48 45 0
658 0 658 230 0 230 0 0 -634z m2110 619 c270 -44 500 -174 655 -370 77 -97
160 -267 191 -390 47 -191 43 -410 -12 -603 -75 -259 -270 -499 -500 -615
-222 -112 -399 -136 -1011 -137 l-313 0 0 -455 0 -455 -235 0 -235 0 2 768 3
767 228 3 227 2 0 -95 0 -95 425 0 c485 0 526 4 662 71 215 104 333 326 321
599 -14 297 -187 508 -460 564 -63 13 -155 16 -513 16 l-435 0 0 -227 0 -228
141 148 141 147 308 0 c299 0 309 1 315 20 19 61 108 79 156 31 54 -55 34
-140 -39 -161 -48 -15 -87 0 -110 40 l-17 30 -300 0 -300 0 -139 -146 c-120
-126 -141 -144 -151 -130 -11 14 -42 16 -239 16 l-226 0 0 450 0 450 683 0
c566 0 698 -3 777 -15z m-3162 -610 c56 -47 50 -116 -14 -156 l-34 -21 0 -161
0 -162 109 -130 c59 -71 166 -204 238 -295 l130 -165 81 -3 c60 -2 82 -6 82
-16 0 -14 -65 -27 -134 -25 -41 1 -41 1 -173 167 -72 92 -182 227 -243 301
-62 74 -116 146 -121 160 -6 13 -9 93 -8 176 l1 151 -36 36 c-25 25 -36 45
-36 65 1 86 94 132 158 78z m493 -94 c39 -40 40 -93 2 -133 -15 -15 -33 -28
-40 -28 -10 0 -13 -34 -13 -154 l0 -154 70 -67 c66 -65 89 -99 76 -113 -4 -3
-47 34 -96 83 l-90 90 0 157 c0 87 -4 158 -9 158 -4 0 -20 11 -35 25 -45 42
-30 132 28 155 42 17 77 11 107 -19z m5710 -130 c51 -51 36 -133 -30 -161 -42
-17 -96 2 -116 41 l-16 29 -513 0 c-283 0 -521 3 -530 6 -9 3 -16 12 -16 20 0
12 84 14 529 14 519 0 530 0 536 20 19 61 108 79 156 31z m-2841 4 c37 -19 50
-43 50 -90 0 -96 -130 -129 -178 -45 l-17 30 -340 0 -340 0 -102 -102 -101
-102 -86 3 -86 3 0 -56 0 -56 275 0 275 0 14 34 c29 68 122 85 166 29 50 -64
4 -163 -75 -163 -29 0 -45 8 -72 35 l-35 35 -269 0 c-173 0 -269 4 -269 10 0
6 -85 10 -235 10 l-235 0 0 65 0 65 229 0 c194 0 230 2 235 15 4 12 23 15 83
15 l78 0 100 100 100 100 346 0 346 0 11 25 c11 24 60 54 90 55 7 0 26 -7 42
-15z m-6637 -136 c39 -46 67 -89 67 -102 -1 -18 -16 -5 -78 60 l-77 83 -87 6
c-49 4 -88 10 -88 14 0 16 19 20 105 20 l91 0 67 -81z m3534 31 c1 0 10 -14
19 -31 22 -43 11 -91 -26 -123 -23 -19 -30 -33 -30 -61 0 -31 13 -52 83 -138
91 -111 117 -147 117 -160 0 -17 -43 23 -122 114 -45 52 -89 100 -100 107 -13
10 -18 26 -18 62 0 45 -3 51 -30 65 -36 19 -50 43 -50 87 1 63 60 105 125 86
16 -4 31 -8 32 -8z m1903 -70 l0 -80 -227 2 -228 3 -3 78 -3 77 231 0 230 0 0
-80z m-2913 -318 c111 -141 292 -369 402 -506 l201 -249 0 -259 0 -258 26 -12
c28 -13 54 -55 54 -88 0 -52 -49 -100 -101 -100 -50 0 -99 49 -99 100 0 34 22
68 52 83 l29 14 -1 259 -1 259 -33 35 c-18 19 -190 231 -381 470 -417 522
-382 480 -400 480 -8 0 -15 7 -15 15 0 10 10 15 33 15 30 -1 44 -16 234 -258z
m6379 168 c85 -86 91 -95 74 -105 -6 -4 -46 27 -89 69 l-77 76 -272 0 c-261 0
-293 3 -277 30 4 6 110 10 284 10 l277 0 80 -80z m-8881 -207 c127 -140 236
-262 244 -270 10 -10 25 -13 48 -10 29 5 36 2 46 -20 l12 -26 246 6 247 6 114
-257 c63 -141 115 -258 114 -258 -1 -1 -153 -4 -339 -5 l-337 -4 -93 121 c-50
66 -109 136 -130 154 -34 30 -293 320 -431 483 l-48 57 -89 0 c-82 0 -89 2
-89 20 0 16 -7 20 -37 21 -71 3 -84 6 -99 28 -23 32 -86 29 -113 -5 -39 -50
-16 -108 46 -120 27 -5 37 -1 63 25 27 26 39 31 81 31 27 0 49 -3 49 -6 0 -3
-16 -43 -36 -89 l-36 -84 -112 -3 c-105 -3 -112 -2 -129 20 -22 27 -72 30 -99
5 -10 -9 -18 -30 -18 -48 0 -65 74 -91 116 -41 22 25 27 26 124 26 100 0 101
0 94 -22 -3 -13 -46 -113 -94 -223 -47 -110 -181 -419 -296 -687 l-209 -488
-242 0 c-134 0 -243 2 -243 5 0 5 147 349 299 700 51 116 187 432 303 703
l211 492 238 0 c132 0 239 -2 239 -4 0 -3 -18 -47 -41 -98 -22 -51 -43 -98
-46 -105 -3 -9 20 -13 88 -15 l93 -3 253 -289 c139 -158 253 -292 253 -297 0
-5 56 -9 125 -9 69 0 125 2 125 4 0 2 -12 28 -28 57 -15 30 -42 87 -61 127
l-33 72 -52 0 -52 0 -210 233 c-116 127 -228 251 -248 275 -37 40 -41 42 -97
42 -46 0 -59 3 -59 15 0 12 14 15 73 14 l72 0 230 -256z m8225 177 l0 -70
-230 0 -230 0 0 70 0 70 230 0 230 0 0 -70z m-7954 -140 c59 -69 113 -128 119
-132 5 -4 89 -8 186 -8 l176 0 32 -72 c18 -40 35 -79 38 -85 4 -10 -49 -13
-245 -13 l-249 0 -21 48 c-11 26 -54 125 -96 221 -42 96 -76 179 -76 185 0 13
1 12 136 -144z m2009 41 c27 -35 499 -606 541 -655 34 -39 34 -40 34 -142 0
-93 2 -103 20 -109 52 -16 78 -105 45 -152 -23 -32 -79 -48 -116 -33 -41 17
-59 47 -59 95 0 32 6 47 28 68 15 15 33 27 40 27 8 0 12 27 12 93 l0 92 -181
215 c-304 361 -421 510 -415 526 7 18 23 10 51 -25z m6854 -181 l196 -201 54
1 c34 0 61 6 71 15 35 32 72 -11 45 -51 -15 -23 -19 -24 -193 -26 l-177 -3
155 -160 c85 -88 162 -159 170 -158 8 1 27 5 42 9 65 15 118 -25 118 -90 -1
-79 -68 -118 -139 -81 -31 16 -56 64 -47 92 4 13 -37 62 -164 193 -157 163
-187 200 -159 200 6 0 -87 100 -206 222 -247 254 -242 235 -66 237 l105 1 195
-200z m-6919 70 c0 -55 -4 -100 -9 -100 -5 0 -21 16 -35 35 l-27 35 -190 0
-189 0 0 65 0 65 225 0 225 0 0 -100z m3200 25 l0 -75 -230 0 -230 0 0 68 c0
38 3 72 7 75 3 4 107 7 230 7 l223 0 0 -75z m3328 -27 c53 -57 146 -154 206
-215 l110 -113 -169 0 -169 0 95 -97 c87 -91 97 -98 129 -95 71 5 120 -36 120
-102 0 -47 -34 -85 -82 -93 -33 -5 -41 -2 -73 30 -37 37 -44 71 -24 108 9 18
-3 33 -95 127 -86 87 -103 109 -92 118 12 8 -11 36 -122 147 l-137 137 -338 0
-337 0 0 70 0 70 193 3 c105 1 304 3 440 5 l248 2 97 -102z m-9400 30 c-5 -32
-28 -35 -28 -4 0 17 5 26 16 26 10 0 14 -7 12 -22z m7109 -18 c36 -22 48 -54
39 -104 -9 -48 -39 -71 -93 -71 -36 0 -49 5 -68 27 -13 15 -25 33 -27 40 -4
10 -91 14 -443 16 -242 1 -441 5 -443 7 -22 21 40 25 449 25 l439 0 10 25 c9
25 58 54 90 55 8 0 30 -9 47 -20z m-2542 -37 c25 -26 45 -51 45 -55 0 -5 -22
-8 -49 -8 l-49 0 -4 55 c-1 30 0 55 4 55 4 0 28 -21 53 -47z m-1741 -105 l46
-53 0 -135 -1 -135 -45 50 c-24 28 -70 82 -102 122 l-57 72 -122 0 -123 1 0
65 0 65 179 0 179 0 46 -52z m6363 -69 c59 -61 110 -115 111 -120 2 -5 -81 -9
-207 -9 l-211 0 0 -650 0 -650 -230 0 -230 0 -2 498 c-1 273 -2 617 -2 764
l-1 268 290 3 c160 1 309 3 332 5 41 2 44 0 150 -109z m-6215 -1 c40 -46 100
-113 131 -150 l58 -67 -1 -240 -1 -240 30 -16 c92 -47 51 -185 -54 -185 -16 0
-38 12 -56 29 -23 23 -29 38 -29 72 0 34 6 47 33 73 l34 32 6 226 6 227 -124
143 c-111 127 -144 178 -116 178 5 0 42 -37 83 -82z m1781 -32 l97 -105 55 6
55 6 0 -102 0 -101 -100 0 -100 0 -96 109 c-77 87 -103 110 -130 116 l-34 6 0
84 0 85 78 0 78 0 97 -104z m207 24 l0 -80 -48 0 c-45 0 -50 3 -108 63 -102
105 -105 97 35 97 l121 0 0 -80z m-2301 -62 c202 -238 212 -256 172 -292 -44
-40 -30 -123 24 -148 l25 -11 0 -454 0 -453 -230 0 -230 0 0 684 0 685 23 4
c12 2 61 5 110 6 79 1 89 -1 106 -21z m-2221 -93 c35 -29 48 -74 32 -105 -9
-16 -7 -27 7 -50 l17 -30 147 0 147 0 119 -145 118 -145 361 0 360 0 167 -388
c92 -214 167 -392 167 -395 0 -4 -111 -6 -246 -5 l-246 3 -87 205 -88 205
-381 5 -380 5 -69 79 c-131 150 -128 146 -105 146 13 0 53 -35 108 -95 l87
-95 359 0 c197 0 358 1 358 3 0 2 -17 44 -39 93 l-38 89 -174 6 c-96 4 -203 7
-240 8 l-65 1 -154 181 c-85 100 -161 190 -168 200 -25 35 -89 69 -132 69 -55
0 -80 26 -80 85 0 86 75 123 138 70z m2519 -181 c38 -24 56 -60 49 -98 -8 -40
-31 -64 -72 -72 -26 -5 -35 0 -62 30 -38 43 -40 68 -9 99 12 12 23 27 23 32 1
6 2 16 3 23 1 15 32 9 68 -14z m-2609 -11 l83 -6 167 -196 c92 -108 171 -202
176 -208 6 -10 -23 -13 -132 -13 l-140 0 -153 176 c-85 97 -158 183 -163 191
-5 9 -4 25 3 39 12 27 22 28 159 17z m-48 -255 c71 -84 130 -156 130 -160 0
-4 -88 -8 -195 -8 -107 0 -195 2 -195 4 0 2 20 55 44 118 25 62 50 132 58 156
7 23 16 42 20 42 4 0 66 -68 138 -152z"/>
<path d="M8705 11386 c-25 -38 -3 -76 46 -76 32 0 49 17 49 50 0 34 -17 50
-52 50 -18 0 -33 -8 -43 -24z"/>
<path d="M12177 11102 c-20 -22 -22 -63 -5 -80 20 -20 76 -15 88 7 15 29 12
49 -10 71 -25 25 -52 26 -73 2z"/>
<path d="M8973 11030 c-50 -20 -30 -100 25 -100 37 0 52 17 52 57 0 27 -5 35
-26 43 -14 6 -26 10 -27 9 -1 0 -12 -4 -24 -9z"/>
<path d="M9452 10934 c-28 -20 -30 -69 -3 -84 45 -23 91 -1 91 45 0 23 -32 55
-55 55 -6 0 -21 -7 -33 -16z"/>
<path d="M15149 10784 c-13 -37 11 -74 49 -74 35 0 52 16 52 50 0 35 -17 50
-57 50 -27 0 -35 -5 -44 -26z"/>
<path d="M12349 10796 c-34 -16 -38 -68 -7 -90 29 -21 51 -20 71 2 45 49 -5
118 -64 88z"/>
<path d="M11842 10464 c-33 -23 -31 -80 4 -96 60 -28 116 58 62 96 -28 20 -38
20 -66 0z"/>
<path d="M9216 10681 c-23 -26 -17 -63 13 -78 48 -23 95 29 66 73 -19 29 -55
31 -79 5z"/>
<path d="M8851 9006 c-18 -21 -9 -66 14 -82 29 -19 69 2 73 39 4 36 -13 57
-48 57 -15 0 -33 -6 -39 -14z"/>
<path d="M8612 9424 c-41 -28 -19 -94 32 -94 26 0 56 29 56 53 0 20 -34 57
-53 57 -7 0 -23 -7 -35 -16z"/>
<path d="M15302 9583 c-18 -7 -33 -49 -25 -69 10 -27 52 -37 79 -19 56 36 8
113 -54 88z"/>
<path d="M14736 9685 c-20 -21 -20 -35 0 -63 12 -17 24 -22 46 -20 40 4 55 28
42 65 -11 34 -62 44 -88 18z"/>
<path d="M12166 10234 c-22 -21 -20 -50 5 -75 20 -20 48 -19 77 3 15 13 16 60
0 76 -17 17 -64 15 -82 -4z"/>
<path d="M8256 9304 c-33 -32 -8 -84 39 -84 35 0 61 43 47 75 -14 29 -61 34
-86 9z"/>
<path d="M5490 9860 c-14 -26 -5 -57 21 -71 43 -23 92 44 57 79 -20 20 -66 15
-78 -8z"/>
<path d="M8038 9664 c-16 -34 0 -59 38 -59 24 0 30 5 32 28 7 55 -48 79 -70
31z"/>
</g>
</svg>
