<?xml version="1.0" standalone="no"?>
<!DOCTYPE svg PUBLIC "-//W3C//DTD SVG 20010904//EN"
 "http://www.w3.org/TR/2001/REC-SVG-20010904/DTD/svg10.dtd">
<svg version="1.0" xmlns="http://www.w3.org/2000/svg"
 width="2048.000000pt" height="2048.000000pt" viewBox="0 0 2048.000000 2048.000000"
 preserveAspectRatio="xMidYMid meet">

<g transform="translate(0.000000,2048.000000) scale(0.100000,-0.100000)"
fill="#000000" stroke="none">
<path d="M5611 11718 c-16 -35 -66 -144 -111 -243 -92 -202 -290 -645 -290
-651 0 -1 -38 -87 -85 -190 -47 -103 -85 -193 -85 -200 0 -12 47 -14 258 -13
141 1 268 4 281 8 16 4 29 21 42 56 10 28 19 51 19 53 0 1 -79 2 -176 2 -142
0 -179 -3 -188 -14 -33 -43 -108 -17 -108 37 0 59 60 78 103 32 24 -24 25 -25
205 -25 l180 0 41 98 c55 130 161 380 177 417 l14 30 27 -60 c14 -33 53 -121
85 -195 216 -500 484 -1114 585 -1340 111 -248 271 -611 278 -632 6 -17 29
-18 279 -20 283 -1 309 -1 316 7 3 3 -21 62 -53 132 -101 221 -214 471 -305
673 -48 107 -171 380 -273 605 -101 226 -233 518 -292 650 -143 321 -343 761
-366 808 l-19 37 -256 0 -255 0 -28 -62z"/>
<path d="M7730 11773 c1 -5 -1 -660 -2 -1458 l-3 -1450 38 1 c20 0 141 1 268
2 l230 2 -2 640 c-2 352 -6 640 -9 640 -27 0 -30 -34 -30 -363 l0 -339 -59
-66 c-49 -53 -58 -69 -50 -84 22 -42 -17 -92 -63 -80 -39 10 -34 85 6 99 13 4
48 36 79 69 l57 62 0 340 0 340 35 33 35 33 0 103 c0 57 -3 103 -7 103 -5 0
-41 -36 -80 -79 l-73 -80 0 -325 c0 -219 -3 -327 -11 -331 -6 -4 -8 -13 -5
-21 8 -21 -13 -62 -35 -67 -11 -3 -29 3 -41 13 -19 15 -21 22 -13 46 6 18 23
35 43 43 l32 15 0 298 0 299 -45 -37 c-25 -20 -45 -41 -46 -48 0 -6 0 -67 1
-135 1 -112 3 -126 22 -141 26 -21 18 -65 -14 -76 -29 -9 -63 30 -52 60 4 12
9 84 11 160 l4 139 155 160 154 160 0 160 c0 140 2 158 15 147 8 -7 92 -113
186 -236 95 -123 176 -224 180 -224 5 0 9 63 9 140 l0 140 -89 98 c-48 53
-177 192 -286 307 -173 184 -202 210 -232 213 -44 4 -70 40 -52 74 15 29 28
38 55 38 29 0 54 -31 54 -68 0 -28 32 -65 249 -294 136 -145 267 -285 290
-311 l41 -48 0 -171 0 -171 43 -56 42 -56 5 240 c5 229 4 241 -15 267 -11 15
-128 146 -260 292 -179 198 -246 266 -262 266 -52 0 -82 70 -45 103 46 42 109
4 98 -57 -7 -34 -3 -39 130 -182 75 -81 206 -224 290 -318 85 -94 165 -179
179 -189 l25 -18 0 -202 0 -202 158 -187 c93 -111 164 -187 175 -187 38 -2 57
-21 57 -56 0 -26 -6 -39 -25 -51 -52 -34 -108 10 -85 66 11 28 8 33 -112 172
-68 79 -140 164 -161 189 l-37 46 0 202 0 202 -32 35 -33 35 -7 -27 c-4 -16
-8 -129 -8 -252 l-1 -224 142 -182 c728 -925 831 -1051 857 -1050 12 0 112 1
222 2 l200 2 -2 1453 -3 1452 -264 3 -264 2 6 -662 c5 -670 0 -1208 -13 -1208
-4 0 -44 51 -90 113 -139 186 -306 398 -364 462 l-55 60 -1 -178 0 -177 92
-98 c71 -76 97 -96 115 -94 55 7 84 -46 45 -81 -38 -34 -82 -12 -82 42 0 10
-4 21 -8 23 -5 2 -48 45 -97 96 l-88 93 0 206 0 205 -37 43 c-20 23 -74 91
-121 151 -46 60 -210 267 -364 459 -155 193 -314 394 -354 448 l-73 97 -234 0
c-129 0 -234 -3 -234 -7z m2088 -695 c21 -21 14 -66 -13 -84 l-25 -16 -2 -276
c-2 -217 -6 -276 -16 -280 -11 -3 -13 48 -11 276 2 245 0 282 -15 303 -20 29
-20 39 0 67 17 24 62 30 82 10z m-1117 -19 c20 -20 20 -32 5 -70 -5 -11 43
-72 164 -209 l170 -192 0 -207 0 -206 148 -170 c81 -93 177 -201 213 -240 l67
-69 75 -4 c66 -4 80 -1 103 17 32 25 57 27 78 5 23 -22 20 -60 -6 -78 -30 -21
-45 -20 -72 7 -19 20 -29 22 -83 17 l-62 -5 97 -102 c89 -94 101 -103 134
-103 39 0 53 -11 63 -52 8 -31 -22 -68 -55 -68 -29 0 -60 35 -60 69 0 16 -7
35 -17 42 -36 31 -397 424 -521 568 l-132 154 0 206 0 206 -87 101 c-239 274
-243 279 -272 276 -33 -4 -63 27 -63 63 0 58 71 86 113 44z m-793 -65 c31 -22
30 -69 -3 -90 -25 -16 -25 -17 -25 -179 0 -192 11 -435 19 -435 3 0 38 35 76
77 l70 77 3 138 c4 127 2 139 -17 164 -25 32 -26 51 -4 76 18 21 53 24 71 6
17 -17 15 -58 -4 -79 -13 -15 -17 -50 -22 -173 l-5 -154 -88 -88 -89 -89 0
-277 c0 -184 4 -279 11 -283 5 -4 15 -18 20 -32 21 -56 -48 -97 -93 -56 -25
22 -23 49 7 79 l25 25 0 593 c0 580 0 593 -20 611 -27 24 -26 70 2 89 12 9 27
16 33 16 6 0 21 -7 33 -16z m2115 -245 c45 -24 49 -59 11 -94 l-25 -23 1 -518
c0 -502 1 -519 20 -536 38 -36 16 -98 -35 -98 -25 0 -55 33 -55 61 0 9 9 24
20 34 20 18 20 31 20 537 0 505 -1 521 -20 545 -27 35 -25 57 6 82 31 25 29
24 57 10z m-101 -104 c9 -20 7 -29 -7 -52 -14 -21 -18 -48 -19 -117 -1 -62 -5
-91 -13 -93 -10 -4 -13 19 -13 91 0 83 -2 97 -19 105 -27 15 -34 41 -16 67 22
34 71 33 87 -1z m-127 -306 c28 -33 64 -78 82 -100 l32 -40 -4 -139 c-4 -131
-4 -140 15 -150 24 -13 27 -62 6 -79 -25 -21 -69 -9 -80 21 -8 23 -6 32 12 51
20 22 22 33 22 158 l0 135 -75 89 c-68 80 -89 116 -67 114 4 0 30 -27 57 -60z"/>
<path d="M9763 11063 c-18 -7 -16 -42 3 -50 8 -3 23 1 31 10 13 13 14 19 3 31
-13 17 -17 18 -37 9z"/>
<path d="M8620 11029 c-16 -28 7 -54 39 -44 17 5 21 13 19 33 -4 35 -42 43
-58 11z"/>
<path d="M9671 9691 c-19 -12 -6 -43 16 -39 10 2 18 12 18 22 0 22 -14 29 -34
17z"/>
<path d="M9714 9405 c-8 -21 2 -45 19 -45 8 0 20 7 27 15 10 12 10 18 0 30 -7
8 -19 15 -27 15 -7 0 -16 -7 -19 -15z"/>
<path d="M7850 10965 c-11 -13 -11 -19 3 -32 21 -21 49 -9 45 19 -4 28 -30 35
-48 13z"/>
<path d="M8040 10791 c0 -24 25 -34 40 -16 15 18 5 35 -21 35 -12 0 -19 -7
-19 -19z"/>
<path d="M7844 9645 c-8 -21 2 -45 19 -45 20 0 40 27 33 45 -7 19 -45 20 -52
0z"/>
<path d="M9980 10715 c-18 -21 -5 -47 22 -43 26 3 37 36 16 49 -18 12 -24 11
-38 -6z"/>
<path d="M9981 9551 c-19 -12 -6 -43 16 -39 10 2 18 12 18 22 0 22 -14 29 -34
17z"/>
<path d="M9860 10635 c-10 -11 -10 -19 -2 -27 15 -15 44 -2 40 19 -4 23 -22
27 -38 8z"/>
<path d="M9877 9884 c-15 -15 -7 -45 11 -42 9 2 17 12 17 22 0 20 -16 31 -28
20z"/>
<path d="M10717 11773 c-4 -3 -7 -147 -7 -320 l0 -313 270 0 270 0 0 70 0 70
358 0 c396 0 452 -7 565 -67 114 -61 206 -184 242 -324 20 -77 23 -224 6 -299
-35 -148 -133 -282 -257 -347 -109 -58 -149 -63 -551 -63 l-363 0 0 85 0 85
-73 0 -73 0 -44 45 -45 45 -150 -2 -150 -3 0 -782 0 -783 265 -2 265 -3 3 408
2 407 273 0 c370 1 557 13 680 44 399 102 669 381 753 778 24 114 24 362 0
472 -47 212 -127 359 -280 511 -173 172 -362 257 -627 285 -111 11 -1321 14
-1332 3z"/>
<path d="M13358 11773 c-1 -5 -2 -659 -2 -1455 l-1 -1448 274 0 274 0 -6 585
-5 585 263 0 c145 0 266 4 269 8 3 4 -1 19 -7 33 l-13 24 -199 -2 c-110 -2
-249 1 -310 6 -108 8 -106 8 95 11 237 2 262 4 351 14 l65 8 46 -51 47 -52
398 1 398 2 3 -586 2 -586 275 0 275 0 0 605 0 605 -560 0 -561 0 -97 95 -97
95 -146 0 c-80 0 -269 3 -420 7 -415 11 -238 23 411 27 510 3 860 18 860 36 0
4 15 10 33 14 17 3 61 18 97 32 142 58 172 54 -405 54 -650 0 -1261 12 -1105
21 58 4 256 7 441 8 591 2 1358 14 1354 21 -15 24 167 41 182 18 15 -23 19
171 14 725 l-4 547 -273 0 -274 0 0 -574 c0 -316 3 -577 8 -579 4 -2 44 -2 90
1 l82 4 0 93 c0 79 -3 94 -20 110 -13 12 -20 31 -20 57 0 51 27 78 79 78 46 0
81 -35 81 -80 0 -29 -42 -80 -66 -80 -10 0 -14 -26 -16 -107 l-3 -108 -805 0
-805 0 -5 590 -5 590 -267 3 c-148 1 -269 -1 -270 -5z"/>
<path d="M8207 11283 c-13 -12 -7 -41 10 -47 21 -8 48 17 40 38 -6 16 -38 22
-50 9z"/>
<path d="M8016 11264 c-8 -22 -8 -22 13 -34 23 -12 54 12 45 35 -8 20 -50 19
-58 -1z"/>
<path d="M11936 11155 l-23 -25 -325 0 c-199 0 -328 -4 -334 -10 -6 -6 -118
-11 -274 -12 l-265 -3 -3 -52 -3 -53 270 0 271 0 0 55 0 54 331 -2 331 -2 20
-27 c38 -53 118 -27 118 37 0 28 -40 65 -69 65 -12 0 -32 -11 -45 -25z m80
-32 c5 -19 2 -30 -11 -39 -24 -18 -55 -1 -55 30 0 29 7 36 36 36 17 0 25 -7
30 -27z"/>
<path d="M11254 10980 c-6 -6 -118 -11 -274 -12 -297 -3 -265 6 -262 -75 l2
-33 265 0 265 0 0 50 0 50 197 0 197 0 166 -165 166 -165 68 0 c63 0 70 -2 96
-30 15 -16 37 -30 49 -30 30 0 61 35 61 69 0 55 -70 81 -110 41 -16 -16 -33
-20 -82 -20 l-63 0 -170 165 -170 165 -195 0 c-115 0 -200 -4 -206 -10z m961
-345 c0 -23 -5 -31 -22 -33 -14 -2 -26 4 -32 17 -16 30 -3 53 28 49 22 -2 26
-8 26 -33z"/>
<path d="M15485 10920 c-37 -41 24 -97 63 -58 18 18 14 56 -7 68 -27 14 -35
13 -56 -10z"/>
<path d="M10988 10833 l-278 -3 0 -45 0 -45 233 0 c127 0 249 -3 270 -6 l37
-7 0 48 0 48 137 -7 138 -7 65 -62 c179 -168 310 -300 310 -312 0 -19 39 -45
67 -45 53 0 84 78 45 113 -25 23 -88 22 -101 0 -8 -15 -36 9 -190 160 l-180
177 -138 -2 c-76 -2 -263 -4 -415 -5z m993 -343 c38 -21 12 -79 -30 -65 -27 8
-34 35 -15 56 20 22 20 22 45 9z"/>
<path d="M11400 10730 c0 -5 5 -10 10 -10 6 0 10 -7 10 -15 0 -8 -4 -15 -9
-15 -5 0 -16 7 -25 15 -14 15 -116 22 -129 9 -3 -3 -126 -7 -274 -8 l-268 -1
0 -50 0 -50 193 -1 193 -1 37 -36 c30 -29 46 -37 74 -37 20 0 40 -4 43 -10 3
-5 32 -10 64 -10 32 0 75 -7 95 -15 31 -13 41 -14 64 -3 15 7 28 23 30 34 6
41 -55 75 -64 36 -4 -15 -19 -18 -100 -20 l-96 -4 4 82 3 82 45 -6 c25 -3 67
-8 93 -12 57 -7 74 4 58 35 -12 21 -51 30 -51 11z m76 -187 c15 -21 1 -43 -27
-43 -23 0 -33 16 -14 24 8 3 15 12 15 21 0 20 10 19 26 -2z"/>
<path d="M5210 10585 c-18 -22 -3 -57 23 -53 29 4 35 43 9 57 -15 8 -23 7 -32
-4z"/>
<path d="M10798 10573 l-88 -4 0 -49 0 -50 158 0 158 0 44 -45 c43 -44 45 -45
110 -45 36 0 71 -5 77 -11 7 -7 62 -10 158 -10 146 2 147 2 171 -24 33 -35 82
-32 104 8 13 24 13 30 0 55 -21 37 -64 41 -97 10 -23 -22 -33 -23 -182 -26
l-157 -3 4 60 4 61 -42 0 c-36 0 -50 6 -86 40 l-44 40 -102 -2 c-57 -1 -142
-4 -190 -5z m870 -200 c4 -29 -28 -47 -53 -29 -12 9 -15 19 -10 35 9 30 59 26
63 -6z"/>
<path d="M5673 10543 c9 -2 23 -2 30 0 6 3 -1 5 -18 5 -16 0 -22 -2 -12 -5z"/>
<path d="M4912 10447 c-26 -12 -40 -53 -25 -76 15 -25 52 -25 74 -2 22 23 49
28 49 9 -1 -7 -7 -24 -15 -38 -8 -14 -14 -28 -15 -32 0 -5 128 -8 285 -8 l285
0 9 23 c5 12 11 32 15 45 l7 22 -269 0 c-148 0 -284 3 -302 6 -20 4 -35 15
-40 29 -11 28 -29 35 -58 22z m36 -43 c3 -22 -21 -39 -39 -28 -11 6 -12 38 -2
48 13 13 38 1 41 -20z"/>
<path d="M5643 10403 c32 -2 81 -2 110 0 29 2 3 3 -58 3 -60 0 -84 -1 -52 -3z"/>
<path d="M4746 10301 c-19 -21 -13 -47 15 -61 27 -15 48 -12 76 10 27 21 113
29 113 10 0 -5 -8 -25 -17 -45 l-17 -35 -103 3 c-89 3 -105 6 -126 25 -31 29
-63 28 -83 -4 -16 -24 -16 -27 3 -52 27 -36 53 -38 87 -7 25 23 34 25 122 25
58 0 94 -4 94 -10 0 -6 -7 -26 -14 -45 l-15 -35 101 0 101 0 44 41 44 41 161
-3 160 -3 14 25 c8 13 18 36 23 50 8 23 17 27 63 32 272 30 273 30 244 40 -34
11 -274 -12 -254 -25 7 -4 -122 -8 -286 -8 -307 0 -464 12 -473 37 -8 19 -58
16 -77 -6z m63 -20 c12 -21 5 -31 -20 -31 -22 0 -31 13 -23 34 8 22 31 20 43
-3z m-139 -86 c17 -20 5 -45 -20 -45 -11 0 -23 7 -26 15 -6 15 11 45 26 45 4
0 13 -7 20 -15z"/>
<path d="M14665 10190 l69 -70 386 1 c212 0 405 4 430 8 25 5 36 9 24 10 -11
0 -44 12 -72 26 -29 14 -61 25 -71 25 -11 0 -48 9 -83 20 -128 42 -210 50
-488 50 l-264 0 69 -70z"/>
<path d="M5678 10216 c-54 -7 -100 -15 -104 -19 -9 -9 227 -9 290 -1 29 4 46
12 46 20 0 17 -87 17 -232 0z"/>
<path d="M5328 10130 l-157 -5 -39 -38 -39 -39 -257 8 c-231 6 -257 9 -272 25
-22 24 -56 24 -77 1 -49 -54 31 -114 83 -62 18 18 33 20 155 20 74 0 135 -2
135 -4 0 -2 -15 -36 -34 -77 -56 -124 -57 -120 6 -113 44 5 57 3 78 -14 23
-19 24 -22 8 -38 -15 -15 -17 -15 -27 5 -8 14 -21 21 -41 21 -33 0 -36 -3 -45
-52 -6 -31 -4 -38 14 -48 28 -14 62 -4 59 18 -2 14 6 17 41 18 43 1 48 5 168
127 l124 126 111 3 110 3 20 53 20 53 244 -7 c165 -5 244 -4 244 3 0 6 -14 13
-31 17 -35 7 -360 5 -601 -4z m-779 -69 c8 -14 7 -22 -4 -31 -19 -16 -45 -6
-45 18 0 36 33 45 49 13z"/>
<path d="M5420 9990 c-14 -4 -64 -8 -112 -9 l-86 -1 -128 -131 c-123 -124
-130 -130 -161 -124 -25 4 -37 1 -53 -15 -21 -21 -65 -26 -89 -11 -13 8 -13
37 1 90 1 7 -2 15 -9 18 -12 5 -93 -148 -177 -335 -25 -55 -77 -169 -116 -254
-39 -84 -92 -197 -117 -251 -25 -54 -44 -99 -42 -100 2 -2 136 -1 298 1 l293
4 31 66 c16 37 65 148 108 247 l78 180 581 3 c319 1 580 6 580 10 0 4 -33 82
-73 172 -40 91 -86 197 -103 235 l-30 70 -367 3 c-202 1 -367 4 -367 7 0 5 42
96 48 105 2 3 141 5 308 5 196 0 304 4 304 10 0 12 -563 17 -600 5z"/>
<path d="M9374 9959 c-3 -6 -2 -15 4 -21 13 -13 32 -2 32 18 0 16 -26 19 -36
3z"/>
<path d="M7960 9820 c0 -11 7 -20 15 -20 8 0 15 9 15 20 0 11 -7 20 -15 20 -8
0 -15 -9 -15 -20z"/>
<path d="M9216 9714 c-4 -10 -1 -24 7 -31 19 -19 49 -5 45 21 -4 27 -43 34
-52 10z"/>
<path d="M8030 9565 c-7 -8 -9 -22 -6 -31 5 -13 9 -14 21 -4 17 14 20 36 6 44
-5 3 -14 -1 -21 -9z"/>
<path d="M8044 9279 c-3 -6 0 -18 9 -26 18 -18 37 -9 37 18 0 21 -34 27 -46 8z"/>
</g>
</svg>
